<svg width="24" height="24" viewBox="0 0 24 24" fill="none" xmlns="http://www.w3.org/2000/svg">
    <path d="M10.5793 0V1.94986L21.3377 12.7077L12.0224 22.0226L2.69386 12.6955L7.2638 8.12578H5.2802L0.706177 12.6996L12.0071 24L23.2938 12.7139L10.5793 0Z" fill="#FE6309"/>
    <path d="M10.5753 3.29192V5.24178L18.0416 12.7077L12.0265 18.7225L5.99817 12.6955L10.5681 8.12578H8.58451L4.01049 12.6996L12.0112 20.6999L19.9976 12.7139L10.5753 3.29192Z" fill="#FE6309"/>
    <path d="M11.9877 7.983L7.26788 12.6996L11.9959 17.4274L12.9913 16.431L16.7147 12.7139L11.9877 7.983ZM12.0132 15.4571L9.25149 12.6955L11.9979 9.94918L14.7515 12.7026L12.0132 15.4571Z" fill="#FE6309"/>
    </svg>
    