<svg width="33" height="32" viewBox="0 0 33 32" fill="none" xmlns="http://www.w3.org/2000/svg">
    <path d="M23.5 20L15.5 12M23.5 12L15.5 20" stroke="#2D2D2D" stroke-width="2" stroke-linecap="round"/>
    <path d="M10.5333 6.06667C10.7817 5.73548 11.1038 5.46667 11.4741 5.28153C11.8444 5.09639 12.2527 5 12.6667 5H27.3333C28.0406 5 28.7189 5.28095 29.219 5.78105C29.719 6.28115 30 6.95942 30 7.66667V23.6667C30 24.3739 29.719 25.0522 29.219 25.5523C28.7189 26.0524 28.0406 26.3333 27.3333 26.3333H12.6667C12.2527 26.3333 11.8444 26.2369 11.4741 26.0518C11.1038 25.8667 10.7817 25.5979 10.5333 25.2667L4.53333 17.2667C4.18714 16.8051 4 16.2437 4 15.6667C4 15.0897 4.18714 14.5283 4.53333 14.0667L10.5333 6.06667Z" stroke="#2D2D2D" stroke-width="2" stroke-linecap="round" stroke-linejoin="round"/>
    </svg>
    