<svg width="16" height="16" viewBox="0 0 16 16" fill="none" xmlns="http://www.w3.org/2000/svg">
    <path d="M5.33334 12.0002V7.3335" stroke="white" stroke-miterlimit="10" stroke-linecap="round" stroke-linejoin="round"/>
    <path d="M8 12.0002V7.3335" stroke="white" stroke-miterlimit="10" stroke-linecap="round" stroke-linejoin="round"/>
    <path d="M8.24667 1.43355L14.2467 3.83354C14.48 3.92687 14.6667 4.20687 14.6667 4.45353V6.66687C14.6667 7.03354 14.3667 7.33354 14 7.33354H2.00001C1.63334 7.33354 1.33334 7.03354 1.33334 6.66687V4.45353C1.33334 4.20687 1.52001 3.92687 1.75335 3.83354L7.75335 1.43355C7.88668 1.38022 8.11334 1.38022 8.24667 1.43355Z" stroke="white" stroke-miterlimit="10" stroke-linecap="round" stroke-linejoin="round"/>
    <path d="M14.6667 14.6667H1.33334V12.6667C1.33334 12.3 1.63334 12 2.00001 12H14C14.3667 12 14.6667 12.3 14.6667 12.6667V14.6667Z" stroke="white" stroke-miterlimit="10" stroke-linecap="round" stroke-linejoin="round"/>
    <path d="M2.66666 12.0002V7.3335" stroke="white" stroke-miterlimit="10" stroke-linecap="round" stroke-linejoin="round"/>
    <path d="M10.6667 12.0002V7.3335" stroke="white" stroke-miterlimit="10" stroke-linecap="round" stroke-linejoin="round"/>
    <path d="M13.3333 12.0002V7.3335" stroke="white" stroke-miterlimit="10" stroke-linecap="round" stroke-linejoin="round"/>
    <path d="M0.666656 14.6665H15.3333" stroke="white" stroke-miterlimit="10" stroke-linecap="round" stroke-linejoin="round"/>
    <path d="M8 5.6665C8.55228 5.6665 9 5.21879 9 4.6665C9 4.11422 8.55228 3.6665 8 3.6665C7.44772 3.6665 7 4.11422 7 4.6665C7 5.21879 7.44772 5.6665 8 5.6665Z" stroke="white" stroke-miterlimit="10" stroke-linecap="round" stroke-linejoin="round"/>
    </svg>
    