<svg width="25" height="25" viewBox="0 0 25 25" fill="none" xmlns="http://www.w3.org/2000/svg">
    <mask id="mask0_2085_3072" style="mask-type:alpha" maskUnits="userSpaceOnUse" x="0" y="0" width="25" height="25">
    <rect x="0.5" y="0.5" width="24" height="24" fill="#D9D9D9"/>
    </mask>
    <g mask="url(#mask0_2085_3072)">
    <path d="M6.5 22.5C5.66667 22.5 4.95833 22.2083 4.375 21.625C3.79167 21.0417 3.5 20.3333 3.5 19.5V16.5H6.5V2.5L8 4L9.5 2.5L11 4L12.5 2.5L14 4L15.5 2.5L17 4L18.5 2.5L20 4L21.5 2.5V19.5C21.5 20.3333 21.2083 21.0417 20.625 21.625C20.0417 22.2083 19.3333 22.5 18.5 22.5H6.5ZM18.5 20.5C18.7833 20.5 19.0208 20.4042 19.2125 20.2125C19.4042 20.0208 19.5 19.7833 19.5 19.5V5.5H8.5V16.5H17.5V19.5C17.5 19.7833 17.5958 20.0208 17.7875 20.2125C17.9792 20.4042 18.2167 20.5 18.5 20.5ZM9.5 9.5V7.5H15.5V9.5H9.5ZM9.5 12.5V10.5H15.5V12.5H9.5ZM17.5 9.5C17.2167 9.5 16.9792 9.40417 16.7875 9.2125C16.5958 9.02083 16.5 8.78333 16.5 8.5C16.5 8.21667 16.5958 7.97917 16.7875 7.7875C16.9792 7.59583 17.2167 7.5 17.5 7.5C17.7833 7.5 18.0208 7.59583 18.2125 7.7875C18.4042 7.97917 18.5 8.21667 18.5 8.5C18.5 8.78333 18.4042 9.02083 18.2125 9.2125C18.0208 9.40417 17.7833 9.5 17.5 9.5ZM17.5 12.5C17.2167 12.5 16.9792 12.4042 16.7875 12.2125C16.5958 12.0208 16.5 11.7833 16.5 11.5C16.5 11.2167 16.5958 10.9792 16.7875 10.7875C16.9792 10.5958 17.2167 10.5 17.5 10.5C17.7833 10.5 18.0208 10.5958 18.2125 10.7875C18.4042 10.9792 18.5 11.2167 18.5 11.5C18.5 11.7833 18.4042 12.0208 18.2125 12.2125C18.0208 12.4042 17.7833 12.5 17.5 12.5ZM6.5 20.5H15.5V18.5H5.5V19.5C5.5 19.7833 5.59583 20.0208 5.7875 20.2125C5.97917 20.4042 6.21667 20.5 6.5 20.5Z" fill="#9747FF"/>
    </g>
    </svg>
    