<svg width="20" height="20" viewBox="0 0 20 20" fill="none" xmlns="http://www.w3.org/2000/svg">
    <mask id="mask0_2323_11496" style="mask-type:alpha" maskUnits="userSpaceOnUse" x="0" y="0" width="20" height="20">
    <rect width="20" height="20" fill="#D9D9D9"/>
    </mask>
    <g mask="url(#mask0_2323_11496)">
    <path d="M7.91666 13.7497L13.75 9.99967L7.91666 6.24967V13.7497ZM3.33332 16.6663C2.87499 16.6663 2.48263 16.5031 2.15624 16.1768C1.82985 15.8504 1.66666 15.458 1.66666 14.9997V4.99967C1.66666 4.54134 1.82985 4.14898 2.15624 3.82259C2.48263 3.4962 2.87499 3.33301 3.33332 3.33301H16.6667C17.125 3.33301 17.5174 3.4962 17.8437 3.82259C18.1701 4.14898 18.3333 4.54134 18.3333 4.99967V14.9997C18.3333 15.458 18.1701 15.8504 17.8437 16.1768C17.5174 16.5031 17.125 16.6663 16.6667 16.6663H3.33332Z" fill="#786E4C"/>
    </g>
    </svg>
    