<svg width="20" height="20" viewBox="0 0 20 20" fill="none" xmlns="http://www.w3.org/2000/svg">
    <mask id="mask0_2323_11472" style="mask-type:alpha" maskUnits="userSpaceOnUse" x="0" y="0" width="20" height="20">
    <rect width="20" height="20" fill="#D9D9D9"/>
    </mask>
    <g mask="url(#mask0_2323_11472)">
    <path d="M15.8333 9.95899C15.8333 8.33399 15.2674 6.95551 14.1354 5.82357C13.0035 4.69162 11.625 4.12565 10 4.12565V2.45898C11.0417 2.45898 12.0174 2.6569 12.9271 3.05273C13.8368 3.44857 14.6285 3.98329 15.3021 4.6569C15.9757 5.33051 16.5104 6.12218 16.9062 7.0319C17.3021 7.94162 17.5 8.91732 17.5 9.95899H15.8333ZM12.5 9.95899C12.5 9.26454 12.2569 8.67426 11.7708 8.18815C11.2847 7.70204 10.6944 7.45898 10 7.45898V5.79232C11.1528 5.79232 12.1354 6.19857 12.9479 7.01107C13.7604 7.82357 14.1667 8.80621 14.1667 9.95899H12.5ZM16.625 17.5007C14.8889 17.5007 13.1736 17.1222 11.4792 16.3652C9.78472 15.6083 8.24306 14.5354 6.85417 13.1465C5.46528 11.7576 4.39236 10.2159 3.63542 8.52149C2.87847 6.82704 2.5 5.11176 2.5 3.37565C2.5 3.12565 2.58333 2.91732 2.75 2.75065C2.91667 2.58398 3.125 2.50065 3.375 2.50065H6.75C6.94444 2.50065 7.11806 2.56662 7.27083 2.69857C7.42361 2.83051 7.51389 2.98676 7.54167 3.16732L8.08333 6.08398C8.11111 6.30621 8.10417 6.49371 8.0625 6.64648C8.02083 6.79926 7.94444 6.93121 7.83333 7.04232L5.8125 9.08399C6.09028 9.59787 6.42014 10.0944 6.80208 10.5736C7.18403 11.0527 7.60417 11.5145 8.0625 11.959C8.49306 12.3895 8.94444 12.7888 9.41667 13.1569C9.88889 13.525 10.3889 13.8618 10.9167 14.1673L12.875 12.209C13 12.084 13.1632 11.9902 13.3646 11.9277C13.566 11.8652 13.7639 11.8479 13.9583 11.8757L16.8333 12.459C17.0278 12.5145 17.1875 12.6152 17.3125 12.7611C17.4375 12.9069 17.5 13.0701 17.5 13.2507V16.6257C17.5 16.8757 17.4167 17.084 17.25 17.2507C17.0833 17.4173 16.875 17.5007 16.625 17.5007Z" fill="#049E5E"/>
    </g>
    </svg>
    