<svg width="24" height="25" viewBox="0 0 24 25" fill="none" xmlns="http://www.w3.org/2000/svg">
    <mask id="mask0_2323_9377" style="mask-type:alpha" maskUnits="userSpaceOnUse" x="0" y="0" width="24" height="25">
    <rect y="0.5" width="24" height="24" fill="#D9D9D9"/>
    </mask>
    <g mask="url(#mask0_2323_9377)">
    <path d="M12 18.5C11.0667 18.5 10.175 18.6458 9.325 18.9375C8.475 19.2292 7.7 19.6667 7 20.25V20.5H17V20.25C16.3 19.6667 15.525 19.2292 14.675 18.9375C13.825 18.6458 12.9333 18.5 12 18.5ZM5 19.35C5.9 18.4667 6.94583 17.7708 8.1375 17.2625C9.32917 16.7542 10.6167 16.5 12 16.5C13.3833 16.5 14.6708 16.7542 15.8625 17.2625C17.0542 17.7708 18.1 18.4667 19 19.35V6.5H5V19.35ZM12 14.5C11.0333 14.5 10.2083 14.1583 9.525 13.475C8.84167 12.7917 8.5 11.9667 8.5 11C8.5 10.0333 8.84167 9.20833 9.525 8.525C10.2083 7.84167 11.0333 7.5 12 7.5C12.9667 7.5 13.7917 7.84167 14.475 8.525C15.1583 9.20833 15.5 10.0333 15.5 11C15.5 11.9667 15.1583 12.7917 14.475 13.475C13.7917 14.1583 12.9667 14.5 12 14.5ZM12 12.5C12.4167 12.5 12.7708 12.3542 13.0625 12.0625C13.3542 11.7708 13.5 11.4167 13.5 11C13.5 10.5833 13.3542 10.2292 13.0625 9.9375C12.7708 9.64583 12.4167 9.5 12 9.5C11.5833 9.5 11.2292 9.64583 10.9375 9.9375C10.6458 10.2292 10.5 10.5833 10.5 11C10.5 11.4167 10.6458 11.7708 10.9375 12.0625C11.2292 12.3542 11.5833 12.5 12 12.5ZM5 22.5C4.45 22.5 3.97917 22.3042 3.5875 21.9125C3.19583 21.5208 3 21.05 3 20.5V6.5C3 5.95 3.19583 5.47917 3.5875 5.0875C3.97917 4.69583 4.45 4.5 5 4.5H6V2.5H8V4.5H16V2.5H18V4.5H19C19.55 4.5 20.0208 4.69583 20.4125 5.0875C20.8042 5.47917 21 5.95 21 6.5V20.5C21 21.05 20.8042 21.5208 20.4125 21.9125C20.0208 22.3042 19.55 22.5 19 22.5H5Z" fill="#049E5E"/>
    </g>
    </svg>
    