<svg width="20" height="20" viewBox="0 0 20 20" fill="none" xmlns="http://www.w3.org/2000/svg">
    <path fill-rule="evenodd" clip-rule="evenodd" d="M13.7312 19.0078C12.5482 19.4978 11.2804 19.75 10 19.75C8.71961 19.75 7.45176 19.4978 6.26884 19.0078C5.08591 18.5178 4.01108 17.7997 3.10571 16.8943C2.20034 15.9889 1.48216 14.9141 0.992174 13.7312C0.50219 12.5482 0.25 11.2804 0.25 10C0.25 8.71961 0.50219 7.45176 0.992174 6.26884C1.48216 5.08591 2.20034 4.01108 3.10571 3.10571C4.01108 2.20034 5.08591 1.48216 6.26884 0.992174C7.45176 0.50219 8.71961 0.25 10 0.25C11.2804 0.25 12.5482 0.50219 13.7312 0.992174C14.9141 1.48216 15.9889 2.20034 16.8943 3.10571C17.7997 4.01108 18.5178 5.08591 19.0078 6.26884C19.4978 7.45176 19.75 8.71961 19.75 10C19.75 11.2804 19.4978 12.5482 19.0078 13.7312C18.5178 14.9141 17.7997 15.9889 16.8943 16.8943C15.9889 17.7997 14.9141 18.5178 13.7312 19.0078ZM10 18.25C11.0834 18.25 12.1562 18.0366 13.1571 17.622C14.1581 17.2074 15.0675 16.5997 15.8336 15.8336C16.5997 15.0675 17.2074 14.1581 17.622 13.1571C18.0366 12.1562 18.25 11.0834 18.25 10C18.25 8.91659 18.0366 7.8438 17.622 6.84286C17.2074 5.84193 16.5997 4.93245 15.8336 4.16637C15.0675 3.40029 14.1581 2.79259 13.1571 2.37799C12.1562 1.96339 11.0834 1.75 10 1.75C8.91659 1.75 7.8438 1.96339 6.84286 2.37799C5.84193 2.79259 4.93245 3.40029 4.16637 4.16637C3.40029 4.93245 2.79259 5.84193 2.37799 6.84286C1.96339 7.8438 1.75 8.91659 1.75 10C1.75 11.0834 1.96339 12.1562 2.37799 13.1571C2.79259 14.1581 3.40029 15.0675 4.16637 15.8336C4.93245 16.5997 5.84193 17.2074 6.84286 17.622C7.8438 18.0366 8.91659 18.25 10 18.25ZM11.75 13C11.75 13.4142 11.4142 13.75 11 13.75L7 13.75C6.58579 13.75 6.25 13.4142 6.25 13L6.25 9C6.25 8.58579 6.58579 8.25 7 8.25C7.41421 8.25 7.75 8.58579 7.75 9V11.1893L12.4697 6.46967C12.7626 6.17678 13.2374 6.17678 13.5303 6.46967C13.8232 6.76256 13.8232 7.23744 13.5303 7.53033L8.81066 12.25L11 12.25C11.4142 12.25 11.75 12.5858 11.75 13Z" fill="white"/>
    </svg>
    