<svg width="16" height="16" viewBox="0 0 16 16" fill="none" xmlns="http://www.w3.org/2000/svg">
    <path fill-rule="evenodd" clip-rule="evenodd" d="M11.2566 2.05607C11.6129 1.69994 12.0961 1.49988 12.5998 1.49988C13.1038 1.49988 13.5871 1.70006 13.9434 2.0564C14.2997 2.41273 14.4999 2.89602 14.4999 3.39995C14.4999 3.90369 14.2999 4.38681 13.9438 4.74311C13.9437 4.74324 13.9439 4.74297 13.9438 4.74311L13.0889 5.60109C13.0695 5.63151 13.0466 5.66029 13.0201 5.68684C12.994 5.71294 12.9657 5.73555 12.9358 5.75468L8.35402 10.3529C8.2602 10.447 8.13275 10.4999 7.99984 10.4999H5.99984C5.72369 10.4999 5.49984 10.2761 5.49984 9.99995V7.99995C5.49984 7.86703 5.55276 7.73958 5.64692 7.64576L10.2451 3.06397C10.2642 3.03411 10.2868 3.00583 10.313 2.97973C10.3395 2.95318 10.3683 2.93025 10.3987 2.91092L11.2566 2.05607C11.2567 2.05596 11.2565 2.05618 11.2566 2.05607ZM10.6742 4.04809L6.49984 8.20758V9.49995H7.79221L11.9517 5.32558L10.6742 4.04809ZM12.6575 4.61721L11.3826 3.34225L11.9634 2.7635C12.1322 2.59471 12.3611 2.49988 12.5998 2.49988C12.8386 2.49988 13.0675 2.59471 13.2363 2.7635C13.4051 2.9323 13.4999 3.16124 13.4999 3.39995C13.4999 3.63866 13.4051 3.8676 13.2363 4.0364L13.2357 4.03703L12.6575 4.61721ZM2.70347 4.70359C3.04729 4.35977 3.51361 4.16662 3.99984 4.16662H4.6665C4.94265 4.16662 5.1665 4.39047 5.1665 4.66662C5.1665 4.94276 4.94265 5.16662 4.6665 5.16662H3.99984C3.77882 5.16662 3.56686 5.25441 3.41058 5.41069C3.2543 5.56697 3.1665 5.77894 3.1665 5.99995V11.9999C3.1665 12.221 3.2543 12.4329 3.41058 12.5892C3.56686 12.7455 3.77882 12.8333 3.99984 12.8333H9.99984C10.2209 12.8333 10.4328 12.7455 10.5891 12.5892C10.7454 12.4329 10.8332 12.221 10.8332 11.9999V11.3333C10.8332 11.0571 11.057 10.8333 11.3332 10.8333C11.6093 10.8333 11.8332 11.0571 11.8332 11.3333V11.9999C11.8332 12.4862 11.64 12.9525 11.2962 13.2963C10.9524 13.6401 10.4861 13.8333 9.99984 13.8333H3.99984C3.51361 13.8333 3.04729 13.6401 2.70347 13.2963C2.35966 12.9525 2.1665 12.4862 2.1665 11.9999V5.99995C2.1665 5.51372 2.35966 5.0474 2.70347 4.70359Z" fill="#404040"/>
    </svg>
    