<svg width="20" height="20" viewBox="0 0 20 20" fill="none" xmlns="http://www.w3.org/2000/svg">
    <mask id="mask0_2323_11488" style="mask-type:alpha" maskUnits="userSpaceOnUse" x="0" y="0" width="20" height="20">
    <rect width="20" height="20" fill="#D9D9D9"/>
    </mask>
    <g mask="url(#mask0_2323_11488)">
    <path d="M9.99999 18.3337C8.09721 18.3337 6.6493 18.0871 5.65624 17.5941C4.66318 17.101 4.16666 16.3753 4.16666 15.417C4.16666 15.0142 4.25693 14.6462 4.43749 14.3128C4.61805 13.9795 4.88888 13.6948 5.24999 13.4587C5.16666 13.5698 5.10068 13.7052 5.05207 13.8649C5.00346 14.0246 4.97916 14.2017 4.97916 14.3962C4.97916 14.9239 5.17013 15.3406 5.55207 15.6462C5.93402 15.9517 6.39235 16.1809 6.92707 16.3337C7.4618 16.4864 8.01388 16.5802 8.58332 16.6149C9.15277 16.6496 9.62499 16.667 9.99999 16.667C10.375 16.667 10.8472 16.6496 11.4167 16.6149C11.9861 16.5802 12.5382 16.4864 13.0729 16.3337C13.6076 16.1809 14.066 15.9517 14.4479 15.6462C14.8299 15.3406 15.0208 14.9239 15.0208 14.3962C15.0208 14.2017 14.9965 14.0246 14.9479 13.8649C14.8993 13.7052 14.8333 13.5698 14.75 13.4587C15.1111 13.6948 15.3819 13.9795 15.5625 14.3128C15.743 14.6462 15.8333 15.0142 15.8333 15.417C15.8333 16.3753 15.3368 17.101 14.3437 17.5941C13.3507 18.0871 11.9028 18.3337 9.99999 18.3337ZM9.99999 15.8337C8.72221 15.8337 7.70832 15.6844 6.95832 15.3857C6.20832 15.0871 5.83332 14.6809 5.83332 14.167C5.83332 13.6809 6.21874 13.2816 6.98957 12.9691C7.76041 12.6566 8.76388 12.5003 9.99999 12.5003C11.2778 12.5003 12.2917 12.6496 13.0417 12.9482C13.7917 13.2469 14.1667 13.6531 14.1667 14.167C14.1667 14.6809 13.7917 15.0871 13.0417 15.3857C12.2917 15.6844 11.2778 15.8337 9.99999 15.8337ZM9.16666 11.667V7.50033H7.49999L10.8333 1.66699V5.83366H12.5L9.16666 11.667Z" fill="#1368F9"/>
    </g>
    </svg>
    