<svg width="22" height="22" viewBox="0 0 22 22" fill="none" xmlns="http://www.w3.org/2000/svg">
    <g clip-path="url(#clip0_2191_4093)">
    <path d="M20.9999 0.131836H1.00014C0.52069 0.131836 0.132019 0.520507 0.132019 0.999956V20.9997C0.132019 21.4792 0.52069 21.8678 1.00014 21.8678H20.9999C21.4793 21.8678 21.868 21.4792 21.868 20.9997V0.999956C21.868 0.520507 21.4793 0.131836 20.9999 0.131836Z" fill="#5C2682"/>
    <path d="M4.33078 8.89496V9.69796H6.10706V10.4374H4.33078V11.8786H3.51172V8.15576H6.3462V8.89496H4.33078Z" fill="white"/>
    <path d="M9.97367 11.5542C9.86934 11.6366 9.75606 11.7071 9.63597 11.7643C9.50799 11.8244 9.37317 11.8687 9.23447 11.8963C9.07334 11.9279 8.9094 11.9431 8.74519 11.9416C8.48421 11.944 8.22546 11.8933 7.98465 11.7926C7.7578 11.6982 7.55178 11.5599 7.37833 11.3859C7.20642 11.2112 7.07085 11.0043 6.97947 10.7769C6.88293 10.5387 6.83412 10.2839 6.83581 10.0269V10.0164C6.83387 9.75999 6.88269 9.50577 6.97947 9.26835C7.07205 9.0409 7.20746 8.83335 7.37833 8.65697C7.55218 8.47889 7.7602 8.33777 7.98993 8.24205C8.23971 8.1391 8.50783 8.08805 8.77797 8.09201C8.93759 8.09081 9.09695 8.10503 9.25383 8.13447C9.38778 8.16012 9.51877 8.19933 9.64477 8.25151C9.75919 8.29981 9.868 8.36045 9.96927 8.43235C10.0677 8.50267 10.1602 8.58097 10.2458 8.66643L9.72397 9.26725C9.59071 9.14474 9.44125 9.04111 9.27979 8.95925C9.12141 8.88318 8.9475 8.84499 8.77181 8.84771C8.62252 8.84633 8.47469 8.87717 8.33841 8.93813C8.20789 8.99659 8.09106 9.08172 7.99543 9.18805C7.89859 9.29625 7.82286 9.4216 7.77213 9.55766C7.71823 9.70133 7.69117 9.85367 7.69227 10.0071V10.0177C7.69134 10.172 7.7184 10.3251 7.77213 10.4698C7.82208 10.6063 7.89664 10.7324 7.99213 10.842C8.08953 10.9522 8.20953 11.0401 8.34396 11.0998C8.47839 11.1594 8.62409 11.1894 8.77115 11.1876C8.98396 11.1876 9.16392 11.1486 9.31103 11.0706C9.47052 10.9838 9.61799 10.8766 9.74971 10.7516L10.2709 11.2781C10.1789 11.3775 10.0796 11.4698 9.97367 11.5542Z" fill="white"/>
    <path d="M13.84 11.8786V9.44804L12.7921 11.0382H12.7701L11.7331 9.4641V11.8786H10.9257V8.15576H11.8083L12.7869 9.73008L13.7654 8.15576H14.6483V11.8786H13.84Z" fill="white"/>
    <path d="M18.6029 11.3042C18.537 11.4322 18.4403 11.5419 18.3215 11.6232C18.1877 11.7134 18.0386 11.7783 17.8815 11.8148C17.6941 11.8591 17.502 11.8806 17.3095 11.8786H15.542V8.15576H17.2675C17.6495 8.15576 17.9494 8.24266 18.167 8.41646C18.3847 8.59026 18.4936 8.82427 18.4937 9.11848V9.13014C18.4952 9.22558 18.4818 9.32068 18.4539 9.41196C18.4291 9.48985 18.3936 9.5639 18.3483 9.63196C18.3052 9.69645 18.2534 9.75465 18.1943 9.80488C18.1367 9.85422 18.0739 9.89701 18.0069 9.93248C18.222 10.0142 18.3914 10.125 18.5151 10.2649C18.6387 10.4048 18.7005 10.5986 18.7003 10.8461V10.8567C18.7041 11.0115 18.6707 11.165 18.6029 11.3042ZM17.6852 9.25664C17.6852 9.13256 17.6392 9.03774 17.5471 8.97218C17.455 8.90662 17.322 8.87384 17.1482 8.87384H16.3397V9.66078H17.0943C17.2752 9.66078 17.4187 9.62976 17.5251 9.56772C17.6314 9.50568 17.6846 9.40551 17.6846 9.2672L17.6852 9.25664ZM17.8927 10.7458C17.8946 10.6886 17.8825 10.6317 17.8575 10.5802C17.8325 10.5287 17.7952 10.484 17.749 10.4501C17.6533 10.3775 17.4993 10.3409 17.287 10.3401H16.341V11.1592H17.3143C17.4952 11.1592 17.637 11.1264 17.7398 11.0609C17.8426 10.9953 17.8939 10.8934 17.8938 10.7551L17.8927 10.7458Z" fill="white"/>
    <path d="M18.6388 14.2642V16.0871H3.43066V15.1283C3.43064 15.0148 3.45297 14.9024 3.49639 14.7976C3.5398 14.6927 3.60346 14.5975 3.68371 14.5172C3.76396 14.437 3.85923 14.3733 3.96409 14.3299C4.06895 14.2865 4.18133 14.2641 4.29482 14.2642H18.6388Z" fill="#FAB613"/>
    <path d="M3.43066 16.6772H18.6388V18.5002H4.29482C4.18131 18.5002 4.06891 18.4779 3.96404 18.4344C3.85917 18.391 3.76388 18.3273 3.68363 18.247C3.60338 18.1668 3.53973 18.0715 3.49632 17.9666C3.45292 17.8617 3.43061 17.7493 3.43066 17.6358V16.6772Z" fill="#FAB613"/>
    </g>
    <defs>
    <clipPath id="clip0_2191_4093">
    <rect width="22" height="22" fill="white"/>
    </clipPath>
    </defs>
    </svg>
    