<svg width="22" height="22" viewBox="0 0 22 22" fill="none" xmlns="http://www.w3.org/2000/svg">
    <path d="M2.86708 20.1937H2.01502L2.02602 19.7843V17.2261C2.02479 17.1112 2.01744 16.9964 2.00402 16.8822C1.99852 16.8277 1.98648 16.7741 1.96816 16.7225C1.9461 16.6793 1.92049 16.638 1.8916 16.5991L1.9356 16.4818H2.87896L3.91868 16.4653C3.98401 16.5626 4.02339 16.6749 4.03308 16.7916C4.04555 16.9102 4.03096 17.0301 3.9904 17.1423H3.86082C3.8441 17.0622 3.7825 16.994 3.67602 16.9377C3.57131 16.8817 3.45538 16.85 3.33678 16.8448L2.84024 16.8228C2.81619 17.2523 2.80423 17.6789 2.80438 18.1028H3.51036C3.56727 18.1028 3.61127 18.1019 3.64236 18.1002C3.68164 18.0964 3.72021 18.0872 3.75698 18.0729C3.79982 18.0578 3.83886 18.0335 3.87138 18.0018C3.88352 18.0648 3.88993 18.1287 3.89052 18.1928C3.89052 18.4239 3.71863 18.5395 3.37484 18.5395C3.30488 18.5395 3.20559 18.5377 3.07696 18.534C2.94834 18.5303 2.85549 18.5285 2.79844 18.5285C2.79668 18.7705 2.79947 19.0362 2.8068 19.3256L2.81494 19.7623L2.8288 19.9369C2.83159 20.0237 2.84443 20.1099 2.86708 20.1937Z" fill="#11237D"/>
    <path d="M5.3891 18.9761C5.3891 19.4965 5.40934 19.9023 5.44982 20.1934H4.65782L4.68818 18.2884C4.68933 18.1844 4.67915 18.0805 4.65782 17.9787C4.64477 17.9088 4.6215 17.8411 4.58874 17.778C4.56588 17.7379 4.53702 17.7016 4.50316 17.6702C4.48254 17.6492 4.45832 17.6321 4.43166 17.6196C4.42097 17.6155 4.40981 17.6128 4.39844 17.6115V17.5105C4.61389 17.3794 4.81724 17.3138 5.0085 17.3138C5.28071 17.3138 5.41674 17.4912 5.4166 17.846C5.4166 17.9006 5.41205 17.9929 5.40296 18.123C5.39372 18.2532 5.3891 18.3544 5.3891 18.4272V18.9761ZM4.59204 16.5988C4.59114 16.5471 4.60102 16.4958 4.62106 16.4481C4.6411 16.4004 4.67085 16.3574 4.70842 16.3218C4.74488 16.2852 4.78835 16.2563 4.83625 16.2368C4.88414 16.2173 4.93547 16.2077 4.98716 16.2085C5.03691 16.2081 5.08622 16.2179 5.132 16.2374C5.17777 16.2569 5.21902 16.2856 5.25314 16.3218C5.28955 16.358 5.31824 16.4013 5.33745 16.4489C5.35666 16.4965 5.366 16.5475 5.3649 16.5988C5.36557 16.6482 5.35599 16.6971 5.33675 16.7426C5.31751 16.788 5.28904 16.829 5.25314 16.8628C5.2185 16.8981 5.17709 16.9261 5.13138 16.945C5.08567 16.9639 5.03662 16.9734 4.98716 16.9728C4.88333 16.9746 4.78307 16.935 4.70842 16.8628C4.67139 16.8296 4.64187 16.7889 4.6218 16.7434C4.60173 16.6978 4.59159 16.6486 4.59204 16.5988Z" fill="#11237D"/>
    <path d="M8.94672 19.9758V20.0985C8.72423 20.2112 8.51743 20.2676 8.32632 20.2677C8.22981 20.2654 8.13564 20.2376 8.0533 20.1872C7.96138 20.1357 7.88872 20.0557 7.84628 19.9593C7.60193 20.1646 7.3482 20.2673 7.08508 20.2673C6.93955 20.2682 6.7951 20.2423 6.65894 20.1909C6.5229 20.1382 6.39831 20.0598 6.29198 19.9599C6.18066 19.8573 6.09266 19.7172 6.02798 19.5397C5.9633 19.3623 5.93111 19.1569 5.9314 18.9237C5.93167 18.7692 5.95065 18.6152 5.98794 18.4653C6.0264 18.3113 6.08561 18.1633 6.16394 18.0253C6.24013 17.8876 6.33505 17.7613 6.44598 17.6497C6.55987 17.5375 6.69483 17.4489 6.84308 17.389C7.00206 17.3235 7.17252 17.2905 7.34446 17.2918C7.43445 17.2936 7.52406 17.3042 7.61198 17.3235C7.71465 17.3443 7.76598 17.3584 7.76598 17.3657C7.76598 17.251 7.76503 17.145 7.76312 17.0478C7.76121 16.9506 7.7585 16.8618 7.75498 16.7816C7.75211 16.7098 7.74425 16.6383 7.73144 16.5675C7.72143 16.5113 7.70527 16.4563 7.68326 16.4036C7.66436 16.3586 7.63578 16.3182 7.59955 16.2855C7.56331 16.2527 7.52031 16.2283 7.4736 16.214V16.113L7.55082 16.0721C7.62008 16.0359 7.69312 16.0075 7.76862 15.9874C7.85635 15.961 7.94739 15.9473 8.039 15.9465C8.10772 15.945 8.17634 15.9524 8.24316 15.9685C8.2978 15.984 8.34761 16.0132 8.38792 16.0532C8.43595 16.1041 8.46885 16.1674 8.48296 16.236C8.50559 16.337 8.516 16.4403 8.51398 16.5438V16.6148C8.51398 16.6477 8.50943 16.7714 8.50034 16.986C8.49125 17.2006 8.48149 17.4638 8.47108 17.7758C8.46096 18.087 8.4559 18.3773 8.4559 18.6465C8.4559 18.8013 8.45678 18.9281 8.45854 19.0271C8.4603 19.1261 8.46404 19.2254 8.46976 19.3248C8.47316 19.4029 8.4805 19.4807 8.49176 19.558C8.50101 19.6149 8.51439 19.671 8.5318 19.7259C8.54333 19.7698 8.56345 19.8111 8.59098 19.8473C8.61606 19.8754 8.64538 19.8994 8.67788 19.9184C8.71383 19.9403 8.75362 19.9552 8.79514 19.9624C8.84531 19.9702 8.89595 19.9747 8.94672 19.9758ZM7.37746 19.8638C7.52647 19.8638 7.64872 19.8301 7.7442 19.7628L7.74992 19.1213V17.7287C7.54752 17.6796 7.39675 17.655 7.2976 17.655C7.18695 17.6532 7.07929 17.691 6.994 17.7615C6.90552 17.8356 6.83794 17.9315 6.79798 18.0398C6.75455 18.1514 6.72227 18.267 6.70162 18.385C6.68147 18.5003 6.67132 18.6172 6.67126 18.7343C6.67126 19.0891 6.73653 19.3661 6.86706 19.5653C6.99759 19.7644 7.16773 19.8637 7.37746 19.8631V19.8638Z" fill="#11237D"/>
    <path d="M11.4243 18.6352L11.3744 18.6561C11.2807 18.6926 11.1538 18.7109 10.9938 18.7109L9.74175 18.6944C9.74527 18.7362 9.74725 18.8055 9.74725 18.9018C9.75444 19.1729 9.83672 19.3855 9.99409 19.5398C10.1515 19.6941 10.3266 19.7715 10.5195 19.7719C10.6933 19.7704 10.8647 19.7318 11.0224 19.6586C11.1925 19.5822 11.3419 19.4494 11.4705 19.2602C11.5018 19.3714 11.5018 19.489 11.4705 19.6001C11.4405 19.7062 11.384 19.803 11.3064 19.8813C11.2231 19.9642 11.1278 20.0341 11.0237 20.0885C10.9106 20.1488 10.79 20.1938 10.6651 20.2223C10.5376 20.2519 10.4072 20.2666 10.2764 20.2663C10.1172 20.2677 9.95898 20.2413 9.80885 20.1884C9.66414 20.1363 9.53086 20.0568 9.41637 19.9541C9.29904 19.8497 9.20576 19.7092 9.13653 19.5326C9.06731 19.356 9.03189 19.1531 9.03027 18.9238C9.03027 18.6237 9.08219 18.3518 9.18603 18.1078C9.28987 17.8639 9.43999 17.6708 9.63637 17.5284C9.83087 17.386 10.0664 17.3108 10.3074 17.3141C10.4421 17.3123 10.5763 17.3303 10.7058 17.3673C10.8098 17.3959 10.9085 17.441 10.9982 17.5009C11.0749 17.5552 11.1418 17.6222 11.1962 17.6989C11.2467 17.7671 11.2892 17.8409 11.3229 17.9189C11.3529 17.9932 11.375 18.0705 11.3889 18.1494C11.402 18.2162 11.4117 18.2836 11.4179 18.3514C11.4217 18.4015 11.4234 18.4528 11.4234 18.5054L11.4243 18.6352ZM10.2715 17.6553C10.1998 17.6542 10.1294 17.6752 10.07 17.7154C10.0066 17.7608 9.95548 17.8213 9.92127 17.8914C9.88061 17.9689 9.8469 18.0499 9.82051 18.1334C9.7905 18.2315 9.76612 18.3312 9.74747 18.4321C9.85601 18.4304 10.0196 18.4249 10.2383 18.4158C10.457 18.4068 10.6262 18.4013 10.7458 18.3993C10.7441 18.3117 10.734 18.2244 10.7155 18.1386C10.6977 18.056 10.6699 17.9759 10.6328 17.8999C10.5989 17.8288 10.5476 17.7673 10.4838 17.7211C10.4218 17.6772 10.3475 17.6541 10.2715 17.6553Z" fill="#11237D"/>
    <path d="M12.8671 20.1934H12.0751C12.0861 19.6214 12.0916 19.0919 12.0916 18.605L12.1055 16.85C12.1055 16.6661 12.0756 16.5195 12.0159 16.41C11.9563 16.3006 11.8897 16.2352 11.8164 16.2138V16.1128L11.8936 16.0719C11.9649 16.0359 12.0397 16.0075 12.1169 15.9872C12.2065 15.9608 12.2994 15.947 12.3928 15.9463C12.5688 15.9463 12.6902 15.9918 12.7569 16.0829C12.8236 16.174 12.8567 16.3141 12.8561 16.5031C12.8561 16.6178 12.8506 16.7488 12.8396 16.8962C12.8162 17.2949 12.8044 17.7844 12.8044 18.3647V19.0771C12.8044 19.2808 12.809 19.4782 12.8183 19.6693C12.8257 19.8447 12.842 20.0196 12.8671 20.1934Z" fill="#11237D"/>
    <path d="M14.3781 18.9761C14.3781 19.4965 14.3984 19.9023 14.4389 20.1934H13.6469L13.6774 18.2884C13.6786 18.1844 13.6684 18.0805 13.6469 17.9787C13.634 17.9087 13.6108 17.8411 13.578 17.778C13.5551 17.7379 13.5263 17.7016 13.4924 17.6702C13.4718 17.6492 13.4475 17.632 13.4207 17.6196C13.4101 17.6155 13.399 17.6128 13.3877 17.6115V17.5105C13.603 17.3794 13.8063 17.3138 13.9975 17.3138C14.2697 17.3138 14.4058 17.4912 14.4056 17.846C14.4056 17.9006 14.4011 17.9929 14.392 18.123C14.3828 18.2532 14.3781 18.3544 14.3781 18.4272V18.9761ZM13.5811 16.5988C13.5801 16.5472 13.5899 16.4958 13.6098 16.4482C13.6297 16.4005 13.6593 16.3575 13.6968 16.3218C13.7332 16.2852 13.7767 16.2563 13.8245 16.2368C13.8724 16.2174 13.9237 16.2077 13.9753 16.2085C14.0251 16.2081 14.0744 16.2179 14.1203 16.2374C14.1661 16.2569 14.2074 16.2856 14.2415 16.3218C14.2779 16.358 14.3066 16.4012 14.3258 16.4489C14.345 16.4965 14.3544 16.5475 14.3533 16.5988C14.354 16.6482 14.3444 16.6971 14.3251 16.7426C14.3059 16.788 14.2774 16.829 14.2415 16.8628C14.2068 16.8981 14.1654 16.9261 14.1196 16.945C14.0739 16.9639 14.0248 16.9734 13.9753 16.9728C13.8716 16.9745 13.7714 16.935 13.6968 16.8628C13.6599 16.8295 13.6305 16.7888 13.6105 16.7433C13.5906 16.6978 13.5805 16.6485 13.5811 16.5988Z" fill="#11237D"/>
    <path d="M16.0945 16.9072L16.0309 17.3712H16.5589C16.6187 17.3707 16.6783 17.3638 16.7366 17.3507C16.8003 17.3371 16.8403 17.3139 16.8568 17.2812C16.8685 17.3248 16.874 17.3698 16.8733 17.415C16.8733 17.6387 16.7115 17.7506 16.3879 17.7507C16.3586 17.7507 16.2975 17.7479 16.2045 17.7423C16.1115 17.7368 16.0485 17.7341 16.0155 17.7342V18.9924C16.0137 19.0452 16.0137 19.1008 16.0155 19.1589C16.0172 19.217 16.0197 19.2749 16.0223 19.3323C16.0248 19.3878 16.0342 19.4427 16.05 19.496C16.0639 19.5438 16.0838 19.5897 16.1092 19.6326C16.1345 19.6728 16.1702 19.7054 16.2126 19.7267C16.2618 19.7513 16.3163 19.7634 16.3712 19.7622C16.492 19.7611 16.6119 19.7422 16.7272 19.7061C16.8502 19.6689 16.9276 19.6194 16.9588 19.5573C16.9826 19.6125 16.9922 19.6727 16.9869 19.7324C16.9816 19.7922 16.9615 19.8498 16.9285 19.8999C16.8606 20.0118 16.7544 20.101 16.6099 20.1674C16.4641 20.2342 16.3054 20.2682 16.1451 20.2671C15.9724 20.2671 15.8295 20.247 15.7163 20.207C15.6129 20.174 15.5226 20.1091 15.4584 20.0215C15.399 19.9367 15.3577 19.8406 15.337 19.7391C15.3129 19.6109 15.3018 19.4805 15.304 19.3501C15.304 19.2118 15.3132 19.0065 15.3315 18.7341C15.3498 18.4617 15.359 18.2625 15.359 18.1364C15.359 17.9216 15.3425 17.7934 15.3095 17.7516C15.2364 17.6583 15.1381 17.5879 15.0264 17.5485L15.0539 17.3822C15.0762 17.3812 15.0984 17.3775 15.1199 17.3712C15.1638 17.3577 15.2067 17.3409 15.2481 17.3208C15.3205 17.2837 15.3858 17.2342 15.4413 17.1747C15.5194 17.0945 15.587 17.0046 15.6424 16.9072H16.0945Z" fill="#11237D"/>
    <path d="M18.7239 20.188L18.6579 20.1608C18.6025 20.1368 18.5524 20.102 18.5105 20.0585C18.4582 20.0097 18.4197 19.948 18.3988 19.8796L17.9049 18.326C17.8733 18.2202 17.8332 18.1172 17.785 18.018C17.7499 17.9438 17.7083 17.873 17.6607 17.8063C17.6274 17.7612 17.59 17.7191 17.5491 17.6807C17.5235 17.6563 17.4957 17.6342 17.4662 17.6147C17.4534 17.6064 17.4396 17.6 17.425 17.5956L17.4193 17.4946C17.4957 17.4421 17.5787 17.3999 17.6662 17.3692C17.7537 17.3346 17.8467 17.3159 17.9407 17.314C18.099 17.314 18.2148 17.3512 18.2881 17.4257C18.3614 17.5002 18.4201 17.6194 18.4641 17.7832C18.5008 17.9944 18.6479 18.4564 18.9054 19.1692L18.973 19.3069C19.0143 19.3916 19.0368 19.4394 19.0405 19.4504L19.068 19.3358C19.0827 19.2699 19.1021 19.2051 19.1261 19.1419L19.4818 18.1348C19.5333 17.9912 19.559 17.8739 19.559 17.7828C19.559 17.6917 19.5278 17.6289 19.4653 17.5945L19.4541 17.4935C19.5815 17.3841 19.742 17.3209 19.9097 17.314C20.0417 17.314 20.1077 17.3831 20.1077 17.5214C20.1077 17.6178 20.0608 17.7815 19.9669 18.0127L18.8425 20.753C18.802 20.8513 18.768 20.9309 18.7404 20.9919C18.7129 21.0529 18.6773 21.1249 18.6337 21.208C18.5976 21.2792 18.5527 21.3457 18.5002 21.406C18.4511 21.459 18.398 21.5083 18.3416 21.5534C18.2814 21.6023 18.212 21.6385 18.1374 21.6598C18.0563 21.6822 17.9725 21.693 17.8884 21.692C17.7191 21.692 17.5862 21.6283 17.4897 21.501C17.3932 21.3737 17.3639 21.2154 17.4017 21.026C17.4385 21.0715 17.4979 21.1088 17.5797 21.138C17.6589 21.1667 17.7424 21.1816 17.8265 21.182C17.9662 21.182 18.0852 21.1561 18.1836 21.1043C18.2774 21.0573 18.3513 20.9784 18.3919 20.8817L18.6559 20.306L18.7239 20.188Z" fill="#11237D"/>
    <path d="M16.9741 0.347046C16.8335 0.321079 16.6908 0.308044 16.5477 0.308106H3.21837C3.18665 0.308164 3.15624 0.320792 3.13381 0.343223C3.11138 0.365655 3.09875 0.396062 3.09869 0.427786V11.6053C3.09851 12.136 3.27802 12.651 3.60799 13.0666C7.4558 11.5772 14.2193 6.37505 17.27 0.420966C17.1731 0.38983 17.0743 0.365136 16.9741 0.347046Z" fill="#11237D"/>
    <path d="M18.9008 2.66197V13.8391C18.9008 13.8708 18.8882 13.9012 18.8657 13.9236C18.8433 13.9461 18.8129 13.9587 18.7812 13.9587H5.45181C5.09793 13.9591 4.74854 13.8795 4.42969 13.726C8.34877 12.1572 15.1338 6.88113 18.0959 0.889648C18.3491 1.11021 18.552 1.38259 18.6909 1.68835C18.8298 1.99412 18.9014 2.32614 18.9008 2.66197Z" fill="#4DC247"/>
    </svg>
    