<svg width="28" height="28" viewBox="0 0 28 28" fill="none" xmlns="http://www.w3.org/2000/svg">
    <path d="M16.7068 22.2483C16.7068 22.96 16.2401 23.8933 15.6451 24.255L14.0002 25.3166C12.4718 26.2616 10.3485 25.2 10.3485 23.31V17.0683C10.3485 16.24 9.88182 15.1783 9.40348 14.595L4.92345 9.88163C4.32845 9.28663 3.86182 8.23664 3.86182 7.52497V4.8183C3.86182 3.40663 4.92351 2.34497 6.21851 2.34497H21.7818C23.0768 2.34497 24.1385 3.40662 24.1385 4.70162V7.29163C24.1385 8.23663 23.5435 9.41497 22.9601 9.9983" stroke="#2D2D2D" stroke-width="1.5" stroke-miterlimit="10" stroke-linecap="round" stroke-linejoin="round"/>
    <path d="M18.7485 19.2733C20.8103 19.2733 22.4818 17.6019 22.4818 15.54C22.4818 13.4781 20.8103 11.8066 18.7485 11.8066C16.6866 11.8066 15.0151 13.4781 15.0151 15.54C15.0151 17.6019 16.6866 19.2733 18.7485 19.2733Z" stroke="#2D2D2D" stroke-width="1.5" stroke-linecap="round" stroke-linejoin="round"/>
    <path d="M23.1818 19.9733L22.0151 18.8066" stroke="#2D2D2D" stroke-width="1.5" stroke-linecap="round" stroke-linejoin="round"/>
    </svg>
    