<svg width="22" height="22" viewBox="0 0 22 22" fill="none" xmlns="http://www.w3.org/2000/svg">
    <g clip-path="url(#clip0_2191_4122)">
    <path fill-rule="evenodd" clip-rule="evenodd" d="M0.130981 0H21.8691V22H0.130981V0Z" fill="#D94F00"/>
    <path fill-rule="evenodd" clip-rule="evenodd" d="M12.4984 4.26611H18.071V9.84992H12.4984V4.26611ZM5.76151 12.6744V13.2206H6.72195V16.1106H7.3842V13.1986H8.27842V12.6523L5.76151 12.6748V12.6744ZM5.26689 13.3516V12.8053C4.73559 12.5651 4.12461 12.4925 3.49903 12.8053C2.47311 13.264 2.43644 15.5355 3.46274 15.9796C4.05202 16.2782 5.2811 16.1398 5.40495 15.8775V14.0793H4.18297V14.5526H4.721V15.4992C2.95314 16.3583 2.62576 12.2303 5.26689 13.3516ZM9.35559 14.5234H9.98828C10.5121 14.5455 10.6505 15.5355 9.96658 15.528H9.35559V14.5234ZM9.35559 13.1331H9.98828C10.5121 13.2277 10.3231 14.0067 9.96658 14.0284H9.35559V13.1331ZM8.70083 12.6018V16.0814H10.4395C11.327 15.7611 11.3637 14.3854 10.4395 14.2394C11.2907 14.1452 11.3345 12.5797 9.86481 12.5797L8.70083 12.6018ZM11.7707 13.5772V14.0939C12.2362 13.9629 13.2475 13.5989 13.1528 14.3708C12.2654 14.3124 11.6615 14.4725 11.5597 15.0255C11.3925 16.2198 12.6728 16.3362 13.2112 15.7465V16.0305H13.8222V13.9338C13.6695 13.2566 12.6586 13.1694 11.7707 13.5772ZM12.2871 14.9241C12.4255 14.7419 12.8692 14.749 13.1674 14.8366V15.2953C12.6803 15.8191 11.8946 15.5793 12.2874 14.9238L12.2871 14.9241ZM15.0883 14.196C15.2484 14.0213 16.0996 13.6936 16.2306 14.196V16.0451H16.9142V14.0868C16.7686 13.2711 15.99 13.1256 15.0445 13.679V13.3733H14.3973V16.0597H15.0808L15.0883 14.196ZM19.0603 13.3441L18.1657 14.5451L19.1115 16.023L19.9336 16.0013L18.8934 14.5818L19.8318 13.3658L19.0607 13.3441H19.0603ZM17.4238 12.463H18.1002V16.023H17.4234V12.4634L17.4238 12.463Z" fill="white"/>
    <path fill-rule="evenodd" clip-rule="evenodd" d="M12.4991 4.26611H18.0717V9.84992H12.4991V4.26611Z" fill="white"/>
    </g>
    <defs>
    <clipPath id="clip0_2191_4122">
    <rect width="21.7381" height="22" fill="white" transform="translate(0.130981)"/>
    </clipPath>
    </defs>
    </svg>
    