<svg width="40" height="40" viewBox="0 0 40 40" fill="none" xmlns="http://www.w3.org/2000/svg">
    <rect width="40" height="40" rx="20" fill="#F5F4EE"/>
    <mask id="mask0_2785_7121" style="mask-type:alpha" maskUnits="userSpaceOnUse" x="8" y="8" width="24" height="24">
    <rect x="8" y="8" width="24" height="24" fill="#D9D9D9"/>
    </mask>
    <g mask="url(#mask0_2785_7121)">
    <path d="M20 30L19.75 27H19.5C17.1333 27 15.125 26.175 13.475 24.525C11.825 22.875 11 20.8667 11 18.5C11 16.1333 11.825 14.125 13.475 12.475C15.125 10.825 17.1333 10 19.5 10C20.6833 10 21.7875 10.2208 22.8125 10.6625C23.8375 11.1042 24.7375 11.7125 25.5125 12.4875C26.2875 13.2625 26.8958 14.1625 27.3375 15.1875C27.7792 16.2125 28 17.3167 28 18.5C28 19.75 27.7958 20.95 27.3875 22.1C26.9792 23.25 26.4208 24.3167 25.7125 25.3C25.0042 26.2833 24.1625 27.175 23.1875 27.975C22.2125 28.775 21.15 29.45 20 30ZM22 26.35C23.1833 25.35 24.1458 24.1792 24.8875 22.8375C25.6292 21.4958 26 20.05 26 18.5C26 16.6833 25.3708 15.1458 24.1125 13.8875C22.8542 12.6292 21.3167 12 19.5 12C17.6833 12 16.1458 12.6292 14.8875 13.8875C13.6292 15.1458 13 16.6833 13 18.5C13 20.3167 13.6292 21.8542 14.8875 23.1125C16.1458 24.3708 17.6833 25 19.5 25H22V26.35ZM19.475 23.975C19.7583 23.975 20 23.875 20.2 23.675C20.4 23.475 20.5 23.2333 20.5 22.95C20.5 22.6667 20.4 22.425 20.2 22.225C20 22.025 19.7583 21.925 19.475 21.925C19.1917 21.925 18.95 22.025 18.75 22.225C18.55 22.425 18.45 22.6667 18.45 22.95C18.45 23.2333 18.55 23.475 18.75 23.675C18.95 23.875 19.1917 23.975 19.475 23.975ZM18.75 20.8H20.25C20.25 20.3 20.3 19.95 20.4 19.75C20.5 19.55 20.8167 19.1833 21.35 18.65C21.65 18.35 21.9 18.025 22.1 17.675C22.3 17.325 22.4 16.95 22.4 16.55C22.4 15.7 22.1125 15.0625 21.5375 14.6375C20.9625 14.2125 20.2833 14 19.5 14C18.7667 14 18.15 14.2042 17.65 14.6125C17.15 15.0208 16.8 15.5167 16.6 16.1L18 16.65C18.0833 16.3667 18.2417 16.0875 18.475 15.8125C18.7083 15.5375 19.05 15.4 19.5 15.4C19.95 15.4 20.2875 15.525 20.5125 15.775C20.7375 16.025 20.85 16.3 20.85 16.6C20.85 16.8833 20.7667 17.1375 20.6 17.3625C20.4333 17.5875 20.2333 17.8167 20 18.05C19.4167 18.55 19.0625 18.9458 18.9375 19.2375C18.8125 19.5292 18.75 20.05 18.75 20.8Z" fill="#1C1B1F"/>
    </g>
    </svg>
    