<svg width="20" height="20" viewBox="0 0 20 20" fill="none" xmlns="http://www.w3.org/2000/svg">
    <mask id="mask0_2323_11480" style="mask-type:alpha" maskUnits="userSpaceOnUse" x="0" y="0" width="20" height="20">
    <rect width="20" height="20" fill="#D9D9D9"/>
    </mask>
    <g mask="url(#mask0_2323_11480)">
    <path d="M4.08332 14.2503C3.29166 13.417 2.69096 12.4934 2.28124 11.4795C1.87152 10.4656 1.66666 9.41699 1.66666 8.33366C1.66666 7.25033 1.87152 6.20171 2.28124 5.18783C2.69096 4.17394 3.29166 3.25033 4.08332 2.41699L5.08332 3.41699C4.41666 4.08366 3.91666 4.85102 3.58332 5.71908C3.24999 6.58713 3.08332 7.45866 3.08332 8.33366C3.08332 9.20866 3.24999 10.0802 3.58332 10.9482C3.91666 11.8163 4.41666 12.5837 5.08332 13.2503L4.08332 14.2503ZM6.08332 12.2503C5.54166 11.7087 5.12846 11.0975 4.84374 10.417C4.55902 9.73644 4.41666 9.04199 4.41666 8.33366C4.41666 7.62533 4.55902 6.93088 4.84374 6.25033C5.12846 5.56977 5.54166 4.95866 6.08332 4.41699L7.08332 5.41699C6.66666 5.79199 6.35416 6.23644 6.14582 6.75033C5.93749 7.26421 5.83332 7.79199 5.83332 8.33366C5.83332 8.83366 5.93749 9.3406 6.14582 9.85449C6.35416 10.3684 6.66666 10.8337 7.08332 11.2503L6.08332 12.2503ZM5.83332 18.3337L8.64582 9.89616C8.4236 9.70171 8.24652 9.47255 8.11457 9.20866C7.98263 8.94477 7.91666 8.6531 7.91666 8.33366C7.91666 7.75033 8.11805 7.25727 8.52082 6.85449C8.9236 6.45171 9.41666 6.25033 9.99999 6.25033C10.5833 6.25033 11.0764 6.45171 11.4792 6.85449C11.8819 7.25727 12.0833 7.75033 12.0833 8.33366C12.0833 8.6531 12.0174 8.94477 11.8854 9.20866C11.7535 9.47255 11.5764 9.70171 11.3542 9.89616L14.1667 18.3337H12.5L11.9583 16.667H8.06249L7.49999 18.3337H5.83332ZM8.60416 15.0003H11.3958L9.99999 10.8337L8.60416 15.0003ZM13.9167 12.2503L12.9167 11.2503C13.3333 10.8753 13.6458 10.4309 13.8542 9.91699C14.0625 9.4031 14.1667 8.87533 14.1667 8.33366C14.1667 7.83366 14.0625 7.32671 13.8542 6.81283C13.6458 6.29894 13.3333 5.83366 12.9167 5.41699L13.9167 4.41699C14.4583 4.95866 14.8611 5.56977 15.125 6.25033C15.3889 6.93088 15.5417 7.62533 15.5833 8.33366C15.5833 9.04199 15.441 9.73644 15.1562 10.417C14.8715 11.0975 14.4583 11.7087 13.9167 12.2503ZM15.9167 14.2503L14.9167 13.2503C15.5833 12.5837 16.0833 11.8163 16.4167 10.9482C16.75 10.0802 16.9167 9.20866 16.9167 8.33366C16.9167 7.45866 16.75 6.58713 16.4167 5.71908C16.0833 4.85102 15.5833 4.08366 14.9167 3.41699L15.9167 2.41699C16.7083 3.25033 17.309 4.17394 17.7187 5.18783C18.1285 6.20171 18.3333 7.25033 18.3333 8.33366C18.3333 9.41699 18.1389 10.4656 17.75 11.4795C17.3611 12.4934 16.75 13.417 15.9167 14.2503Z" fill="#6138D5"/>
    </g>
    </svg>
    