<svg width="79" height="79" viewBox="0 0 79 79" fill="none" xmlns="http://www.w3.org/2000/svg">
<path d="M78.9656 39.4652C78.9656 61.2613 61.2965 78.9305 39.5004 78.9305C17.7043 78.9305 0.0351562 61.2613 0.0351562 39.4652C0.0351562 17.6692 17.7043 0 39.5004 0C61.2965 0 78.9656 17.6692 78.9656 39.4652Z" fill="#00BC74" fill-opacity="0.15"/>
<mask id="mask0_5789_28090" style="mask-type:alpha" maskUnits="userSpaceOnUse" x="0" y="0" width="79" height="79">
<path d="M78.9656 39.4652C78.9656 61.2613 61.2965 78.9305 39.5004 78.9305C17.7043 78.9305 0.0351562 61.2613 0.0351562 39.4652C0.0351562 17.6692 17.7043 0 39.5004 0C61.2965 0 78.9656 17.6692 78.9656 39.4652Z" fill="#E4AA3D"/>
</mask>
<g mask="url(#mask0_5789_28090)">
<path d="M13.4531 24.4687C13.4531 22.7251 14.8667 21.3115 16.6103 21.3115H62.39C64.1337 21.3115 65.5472 22.7251 65.5472 24.4687V86.0345H13.4531V24.4687Z" fill="white"/>
</g>
<path d="M19.7695 30.7827C19.7695 29.9109 20.4763 29.2041 21.3481 29.2041H35.5556C36.4275 29.2041 37.1342 29.9109 37.1342 30.7827C37.1342 31.6546 36.4275 32.3613 35.5556 32.3613H21.3481C20.4763 32.3613 19.7695 31.6546 19.7695 30.7827Z" fill="#00BC74" fill-opacity="0.3"/>
<path d="M19.7695 37.8862C19.7695 37.0144 20.4763 36.3076 21.3481 36.3076H45.8166C46.6884 36.3076 47.3952 37.0144 47.3952 37.8862C47.3952 38.7581 46.6884 39.4648 45.8166 39.4648H21.3481C20.4763 39.4648 19.7695 38.7581 19.7695 37.8862Z" fill="#00BC74" fill-opacity="0.1"/>
<path d="M19.7695 44.9897C19.7695 44.1179 20.4763 43.4111 21.3481 43.4111H35.5556C36.4275 43.4111 37.1342 44.1179 37.1342 44.9897C37.1342 45.8616 36.4275 46.5684 35.5556 46.5684H21.3481C20.4763 46.5684 19.7695 45.8616 19.7695 44.9897Z" fill="#00BC74" fill-opacity="0.3"/>
<path d="M19.7695 52.0942C19.7695 51.2224 20.4763 50.5156 21.3481 50.5156H45.8166C46.6884 50.5156 47.3952 51.2224 47.3952 52.0942C47.3952 52.9661 46.6884 53.6728 45.8166 53.6728H21.3481C20.4763 53.6728 19.7695 52.9661 19.7695 52.0942Z" fill="#00BC74" fill-opacity="0.1"/>
<path d="M19.7695 59.1978C19.7695 58.3259 20.4763 57.6191 21.3481 57.6191H35.5556C36.4275 57.6191 37.1342 58.3259 37.1342 59.1978C37.1342 60.0696 36.4275 60.7764 35.5556 60.7764H21.3481C20.4763 60.7764 19.7695 60.0696 19.7695 59.1978Z" fill="#00BC74" fill-opacity="0.3"/>
<path d="M19.7695 66.3013C19.7695 65.4294 20.4763 64.7227 21.3481 64.7227H45.8166C46.6884 64.7227 47.3952 65.4294 47.3952 66.3013C47.3952 67.1731 46.6884 67.8799 45.8166 67.8799H21.3481C20.4763 67.8799 19.7695 67.1731 19.7695 66.3013Z" fill="#00BC74" fill-opacity="0.1"/>
</svg>
