<svg width="40" height="40" viewBox="0 0 40 40" fill="none" xmlns="http://www.w3.org/2000/svg">
    <rect width="40" height="40" rx="20" fill="#F4EBFF"/>
    <mask id="mask0_2785_7091" style="mask-type:alpha" maskUnits="userSpaceOnUse" x="8" y="8" width="24" height="24">
    <rect x="8" y="8" width="24" height="24" fill="#D9D9D9"/>
    </mask>
    <g mask="url(#mask0_2785_7091)">
    <path d="M20 30C19.45 30 18.9792 29.8042 18.5875 29.4125C18.1958 29.0208 18 28.55 18 28H22C22 28.55 21.8042 29.0208 21.4125 29.4125C21.0208 29.8042 20.55 30 20 30ZM12 27V25H14V18C14 16.6167 14.4167 15.3875 15.25 14.3125C16.0833 13.2375 17.1667 12.5333 18.5 12.2V11.5C18.5 11.0833 18.6458 10.7292 18.9375 10.4375C19.2292 10.1458 19.5833 10 20 10C20.4167 10 20.7708 10.1458 21.0625 10.4375C21.3542 10.7292 21.5 11.0833 21.5 11.5V11.825C21.3167 12.1917 21.1833 12.5667 21.1 12.95C21.0167 13.3333 20.9833 13.725 21 14.125C20.8333 14.0917 20.6708 14.0625 20.5125 14.0375C20.3542 14.0125 20.1833 14 20 14C18.9 14 17.9583 14.3917 17.175 15.175C16.3917 15.9583 16 16.9 16 18V25H24V18.575C24.3 18.7083 24.6208 18.8125 24.9625 18.8875C25.3042 18.9625 25.65 19 26 19V25H28V27H12ZM26 17C25.1667 17 24.4583 16.7083 23.875 16.125C23.2917 15.5417 23 14.8333 23 14C23 13.1667 23.2917 12.4583 23.875 11.875C24.4583 11.2917 25.1667 11 26 11C26.8333 11 27.5417 11.2917 28.125 11.875C28.7083 12.4583 29 13.1667 29 14C29 14.8333 28.7083 15.5417 28.125 16.125C27.5417 16.7083 26.8333 17 26 17Z" fill="#9747FF"/>
    </g>
    </svg>
    