<svg width="41" height="40" viewBox="0 0 41 40" fill="none" xmlns="http://www.w3.org/2000/svg">
<rect width="40.3809" height="40" rx="12" fill="#ACE9D0"/>
<path fill-rule="evenodd" clip-rule="evenodd" d="M9.5238 24.7617H14.0952V31.6208C14.0952 31.8301 13.9216 31.9998 13.7133 31.9998H9.9057C9.69478 31.9998 9.5238 31.828 9.5238 31.6208V24.7617ZM26.2856 24.7617H30.8571V31.6208C30.8571 31.8301 30.6834 31.9998 30.4752 31.9998H26.6675C26.4566 31.9998 26.2856 31.828 26.2856 31.6208V24.7617Z" fill="#595959"/>
<path fill-rule="evenodd" clip-rule="evenodd" d="M12.7128 17.8799C12.8451 17.2625 13.4536 16.6511 14.0734 16.5323C14.0734 16.5323 16 16 20.1904 16C24.3809 16 26.3132 16.5333 26.3132 16.5333C26.9292 16.6596 27.536 17.2636 27.6681 17.8799L28.5714 22.0952H11.8095L12.7128 17.8799Z" fill="#B4DFFB" stroke="#22BA8E" stroke-width="1.45455" stroke-linecap="round"/>
<path fill-rule="evenodd" clip-rule="evenodd" d="M9.4163 24.7511C9.26528 22.8634 10.679 21.333 12.571 21.333H27.8099C29.7032 21.333 31.1156 22.8632 30.9646 24.7511L30.628 28.9581C30.5441 30.0067 29.6313 30.7578 28.5823 30.648C28.5823 30.648 25.3333 30.1954 20.1904 30.1954C15.0476 30.1954 11.794 30.6484 11.794 30.6484C10.7506 30.7635 9.83647 30.0032 9.75286 28.9581L9.4163 24.7511Z" fill="#22BA8E"/>
<path d="M22.4761 25.5234H17.9047C17.2735 25.5234 16.7619 26.0351 16.7619 26.6663V27.4282C16.7619 28.0594 17.2735 28.571 17.9047 28.571H22.4761C23.1073 28.571 23.619 28.0594 23.619 27.4282V26.6663C23.619 26.0351 23.1073 25.5234 22.4761 25.5234Z" fill="#5B68C0"/>
<path d="M15.619 28.1904H11.4286V28.9523H15.619V28.1904Z" fill="#ECECEC"/>
<path d="M29.3333 28.1904H25.1428V28.9523H29.3333V28.1904Z" fill="#ECECEC"/>
<path fill-rule="evenodd" clip-rule="evenodd" d="M10.7914 25.5104C10.7225 25.097 11.0025 24.823 11.4158 24.8981L14.1079 25.3876C14.5217 25.4629 14.8571 25.862 14.8571 26.2857C14.8571 26.7065 14.519 27.0476 14.0954 27.0476H11.8094C11.3887 27.0476 10.9914 26.7104 10.9229 26.2992L10.7914 25.5104Z" fill="#ECECEC"/>
<path fill-rule="evenodd" clip-rule="evenodd" d="M29.5895 25.5104C29.6584 25.097 29.3784 24.823 28.965 24.8981L26.2729 25.3876C25.8592 25.4629 25.5237 25.862 25.5237 26.2857C25.5237 26.7065 25.8618 27.0476 26.2855 27.0476H28.5715C28.9922 27.0476 29.3895 26.7104 29.458 26.2992L29.5895 25.5104Z" fill="#ECECEC"/>
<path fill-rule="evenodd" clip-rule="evenodd" d="M28.9523 20.0127C28.9523 19.5924 29.281 19.3429 29.6878 19.4559L32.3809 20.204V20.7772C32.3809 21.197 32.0396 21.5373 31.62 21.5373H28.9523V20.0127Z" fill="#22BA8E"/>
<path fill-rule="evenodd" clip-rule="evenodd" d="M11.4286 20.0127C11.4286 19.5924 11.0998 19.3429 10.693 19.4559L8 20.204V20.7772C8 21.197 8.34128 21.5373 8.76091 21.5373H11.4286V20.0127Z" fill="#22BA8E"/>
<path fill-rule="evenodd" clip-rule="evenodd" d="M18.2857 21.3324C18.2857 20.912 18.6237 20.5713 19.0474 20.5713H21.3334C21.7541 20.5713 22.0952 20.9135 22.0952 21.3324V22.857H18.2857V21.3324Z" fill="#22BA8E"/>
<path fill-rule="evenodd" clip-rule="evenodd" d="M22.9692 11.517C23.2414 12.5331 24.3239 13.1259 25.3869 12.8411C26.4499 12.5563 29.2246 9.84083 29.2246 9.84083C29.2246 9.84083 25.464 8.87656 24.4009 9.16139C23.3379 9.44623 22.6969 10.5009 22.9692 11.517Z" fill="#80D25B"/>
<path fill-rule="evenodd" clip-rule="evenodd" d="M17.7962 11.516C17.5239 12.5321 16.4415 13.125 15.3784 12.8401C14.3154 12.5553 11.5407 9.83985 11.5407 9.83985C11.5407 9.83985 15.3014 8.87558 16.3644 9.16041C17.4274 9.44525 18.0685 10.4999 17.7962 11.516Z" fill="#80D25B"/>
<path d="M24.7618 11.0479C22.2371 11.0479 20.1904 13.0945 20.1904 15.6193" stroke="#22BA8E" stroke-width="1.45455" stroke-linecap="round"/>
<path d="M15.619 11.0479C18.1437 11.0479 20.1904 13.0945 20.1904 15.6193" stroke="#22BA8E" stroke-width="1.45455" stroke-linecap="round"/>
</svg>
