<svg width="25" height="25" viewBox="0 0 25 25" fill="none" xmlns="http://www.w3.org/2000/svg">
    <mask id="mask0_2085_3077" style="mask-type:alpha" maskUnits="userSpaceOnUse" x="0" y="0" width="25" height="25">
    <rect x="0.5" y="0.5" width="24" height="24" fill="#D9D9D9"/>
    </mask>
    <g mask="url(#mask0_2085_3077)">
    <path d="M4.5 9.50005C4.21667 9.50005 3.97917 9.40422 3.7875 9.21255C3.59583 9.02088 3.5 8.78338 3.5 8.50005C3.5 8.21672 3.59583 7.97922 3.7875 7.78755C3.97917 7.59588 4.21667 7.50005 4.5 7.50005H7.5C8.05 7.50005 8.52083 7.69588 8.9125 8.08755C9.30417 8.47922 9.5 8.95005 9.5 9.50005H4.5ZM6.5 18.5C7.33333 18.5 8.04167 18.2084 8.625 17.625C9.20833 17.0417 9.5 16.3334 9.5 15.5C9.5 14.6667 9.20833 13.9584 8.625 13.375C8.04167 12.7917 7.33333 12.5 6.5 12.5C5.66667 12.5 4.95833 12.7917 4.375 13.375C3.79167 13.9584 3.5 14.6667 3.5 15.5C3.5 16.3334 3.79167 17.0417 4.375 17.625C4.95833 18.2084 5.66667 18.5 6.5 18.5ZM20 18.5C20.4167 18.5 20.7708 18.3542 21.0625 18.0625C21.3542 17.7709 21.5 17.4167 21.5 17C21.5 16.5834 21.3542 16.2292 21.0625 15.9375C20.7708 15.6459 20.4167 15.5 20 15.5C19.5833 15.5 19.2292 15.6459 18.9375 15.9375C18.6458 16.2292 18.5 16.5834 18.5 17C18.5 17.4167 18.6458 17.7709 18.9375 18.0625C19.2292 18.3542 19.5833 18.5 20 18.5ZM6.5 17C6.08333 17 5.72917 16.8542 5.4375 16.5625C5.14583 16.2709 5 15.9167 5 15.5C5 15.0834 5.14583 14.7292 5.4375 14.4375C5.72917 14.1459 6.08333 14 6.5 14C6.91667 14 7.27083 14.1459 7.5625 14.4375C7.85417 14.7292 8 15.0834 8 15.5C8 15.9167 7.85417 16.2709 7.5625 16.5625C7.27083 16.8542 6.91667 17 6.5 17ZM20.5 13.525C20.9333 13.6084 21.2917 13.7209 21.575 13.8625C21.8583 14.0042 22.1667 14.2334 22.5 14.55V8.50005C22.5 7.95005 22.3042 7.47922 21.9125 7.08755C21.5208 6.69588 21.05 6.50005 20.5 6.50005H14.2L13.15 5.40005L14.55 4.00005L13.85 3.30005L10.3 6.85005L11.05 7.55005L12.45 6.15005L13.5 7.20005V9.50005C13.5 10.05 13.3042 10.5209 12.9125 10.9125C12.5208 11.3042 12.05 11.5 11.5 11.5H9.475C9.85833 11.7834 10.1667 12.075 10.4 12.375C10.6333 12.675 10.8667 13.05 11.1 13.5H11.5C12.6 13.5 13.5417 13.1084 14.325 12.325C15.1083 11.5417 15.5 10.6 15.5 9.50005V8.50005H20.5V13.525ZM16.525 16.5C16.625 16.05 16.7458 15.6875 16.8875 15.4125C17.0292 15.1375 17.25 14.8334 17.55 14.5H11.4C11.4667 14.8834 11.5 15.2167 11.5 15.5C11.5 15.7834 11.4667 16.1167 11.4 16.5H16.525ZM20 20.5C19.0333 20.5 18.2083 20.1584 17.525 19.475C16.8417 18.7917 16.5 17.9667 16.5 17C16.5 16.0334 16.8417 15.2084 17.525 14.525C18.2083 13.8417 19.0333 13.5 20 13.5C20.9667 13.5 21.7917 13.8417 22.475 14.525C23.1583 15.2084 23.5 16.0334 23.5 17C23.5 17.9667 23.1583 18.7917 22.475 19.475C21.7917 20.1584 20.9667 20.5 20 20.5ZM6.5 20.5C5.11667 20.5 3.9375 20.0125 2.9625 19.0375C1.9875 18.0625 1.5 16.8834 1.5 15.5C1.5 14.1167 1.9875 12.9375 2.9625 11.9625C3.9375 10.9875 5.11667 10.5 6.5 10.5C7.88333 10.5 9.0625 10.9875 10.0375 11.9625C11.0125 12.9375 11.5 14.1167 11.5 15.5C11.5 16.8834 11.0125 18.0625 10.0375 19.0375C9.0625 20.0125 7.88333 20.5 6.5 20.5Z" fill="#0D7A4D"/>
    </g>
    </svg>
    