<svg width="40" height="40" viewBox="0 0 40 40" fill="none" xmlns="http://www.w3.org/2000/svg">
    <rect width="40" height="40" rx="12" fill="#F1E7FF"/>
    <path d="M14.8 13.7998H9.2C8.97908 13.7998 8.80002 13.9789 8.80002 14.1998V18.1998C8.80002 18.4207 8.97913 18.5998 9.2 18.5998L12 18.9998L14.8 18.5998C15.0209 18.5998 15.2 18.4207 15.2 18.1998V14.1998C15.2 13.9789 15.0209 13.7998 14.8 13.7998Z" fill="#FDDD85"/>
    <path d="M9.59999 18.1998V14.1998C9.59999 13.9789 9.7791 13.7998 9.99997 13.7998H9.2C8.97908 13.7998 8.80002 13.9789 8.80002 14.1998V18.1998C8.80002 18.4207 8.97913 18.5998 9.2 18.5998H10C9.7791 18.5998 9.59999 18.4207 9.59999 18.1998Z" fill="#FDD042"/>
    <path d="M15.6 12.2002H8.39998C8.17911 12.2002 8 12.3793 8 12.6002V14.2002C8 14.4211 8.17911 14.6001 8.39998 14.6001H15.6C15.8209 14.6001 16 14.421 16 14.2002V12.6002C16 12.3793 15.8209 12.2002 15.6 12.2002Z" fill="#F2C127"/>
    <path d="M8.80002 14.2002V12.6002C8.80002 12.3793 8.97912 12.2002 9.2 12.2002H8.39998C8.17911 12.2002 8 12.3793 8 12.6002V14.2002C8 14.4211 8.17911 14.6001 8.39998 14.6001H9.2C8.97908 14.6002 8.80002 14.4211 8.80002 14.2002Z" fill="#E1A527"/>
    <path d="M15.5999 21.7997C15.4325 21.7997 15.2764 21.6937 15.2205 21.5261L14.5117 19.3996H8.39998C8.17911 19.3996 8 19.2205 8 18.9996C8 18.7787 8.17911 18.5996 8.39998 18.5996H14.8C14.9721 18.5996 15.125 18.7098 15.1795 18.8731L15.9795 21.2731C16.0493 21.4827 15.9361 21.7092 15.7265 21.7791C15.6845 21.793 15.6418 21.7997 15.5999 21.7997Z" fill="#4C4E55"/>
    <path d="M14.8485 10.1513C14.6219 9.92463 14.3205 9.7998 14 9.7998C13.6795 9.7998 13.3781 9.92463 13.1515 10.1513C13.1515 10.1513 13.1516 10.1513 13.1515 10.1513C12.9627 10.3401 12.6374 10.6986 12.3983 10.9655C12.3809 10.7607 12.2094 10.5998 12 10.5998C11.7907 10.5998 11.6192 10.7607 11.6018 10.9656C11.3627 10.6987 11.0375 10.3401 10.8486 10.1513C10.8485 10.1513 10.8486 10.1513 10.8486 10.1513C10.622 9.92463 10.3205 9.7998 10 9.7998C9.67949 9.7998 9.37813 9.92463 9.15153 10.1513C8.9248 10.3779 8.80002 10.6793 8.80002 10.9998C8.80002 11.3203 8.9248 11.6217 9.15149 11.8483C9.28733 11.9841 9.50788 12.1046 10.1311 12.1046C10.2835 12.1046 10.4601 12.0973 10.6654 12.0814C11.0736 12.0497 11.4515 11.9939 11.6 11.9706V18.9998C11.6 19.2207 11.7791 19.3998 12 19.3998C12.2209 19.3998 12.4 19.2206 12.4 18.9998V11.9706C12.5485 11.994 12.9263 12.0497 13.3346 12.0814C13.5399 12.0974 13.7165 12.1046 13.8689 12.1046C14.492 12.1046 14.7126 11.9841 14.8484 11.8483C15.0752 11.6217 15.2 11.3203 15.2 10.9998C15.2 10.6793 15.0752 10.3779 14.8485 10.1513ZM9.69903 11.2633C9.47642 11.01 9.66355 10.5998 9.99997 10.5998C10.1068 10.5998 10.2073 10.6414 10.2828 10.7169C10.4092 10.8433 10.6085 11.0595 10.7973 11.2678C10.2824 11.3171 9.84252 11.3191 9.69903 11.2633ZM14.3009 11.2633C14.1577 11.3189 13.7178 11.3169 13.2028 11.2677C13.3915 11.0594 13.5907 10.8434 13.7172 10.717C13.8669 10.5672 14.1157 10.562 14.2714 10.7059C14.4283 10.8511 14.4423 11.1025 14.3009 11.2633Z" fill="#F07B52"/>
    <path d="M16 30.2C17.9883 30.2 19.6 28.5882 19.6 26.6C19.6 24.6118 17.9883 23 16 23C14.0118 23 12.4 24.6118 12.4 26.6C12.4 28.5882 14.0118 30.2 16 30.2Z" fill="#606268"/>
    <path d="M16 28.5996C17.1046 28.5996 18 27.7042 18 26.5996C18 25.495 17.1046 24.5996 16 24.5996C14.8954 24.5996 14 25.495 14 26.5996C14 27.7042 14.8954 28.5996 16 28.5996Z" fill="#4C4E55"/>
    <path d="M16 27.7994C16.6628 27.7994 17.2 27.2622 17.2 26.5994C17.2 25.9367 16.6628 25.3994 16 25.3994C15.3373 25.3994 14.8 25.9367 14.8 26.5994C14.8 27.2622 15.3373 27.7994 16 27.7994Z" fill="#D7D8D9"/>
    <path d="M26.8 30.2C28.7882 30.2 30.4 28.5882 30.4 26.6C30.4 24.6118 28.7882 23 26.8 23C24.8118 23 23.2 24.6118 23.2 26.6C23.2 28.5882 24.8118 30.2 26.8 30.2Z" fill="#606268"/>
    <path d="M26.8 28.5996C27.9046 28.5996 28.8 27.7042 28.8 26.5996C28.8 25.495 27.9046 24.5996 26.8 24.5996C25.6954 24.5996 24.8 25.495 24.8 26.5996C24.8 27.7042 25.6954 28.5996 26.8 28.5996Z" fill="#4C4E55"/>
    <path d="M26.8 27.7994C27.4627 27.7994 28 27.2622 28 26.5994C28 25.9367 27.4627 25.3994 26.8 25.3994C26.1373 25.3994 25.6 25.9367 25.6 26.5994C25.6 27.2622 26.1373 27.7994 26.8 27.7994Z" fill="#D7D8D9"/>
    <path d="M25.2 15.0002H23.2C22.979 15.0002 22.8 14.8211 22.8 14.6002C22.8 14.3793 22.9791 14.2002 23.2 14.2002H25.2C25.4209 14.2002 25.6 14.3793 25.6 14.6002C25.6 14.8211 25.4209 15.0002 25.2 15.0002Z" fill="#606268"/>
    <path d="M28 17.4002C28.8837 17.4002 29.6 16.6838 29.6 15.8002C29.6 14.9165 28.8837 14.2002 28 14.2002C27.1164 14.2002 26.4 14.9165 26.4 15.8002C26.4 16.6838 27.1164 17.4002 28 17.4002Z" fill="#FDD042"/>
    <path d="M28 14.2002H26.4C26.1791 14.2002 26.0001 14.3793 26.0001 14.6002V17.0002C26.0001 17.2211 26.1792 17.4002 26.4 17.4002H28C28.221 17.4002 28.4 17.2211 28.4 17.0002V14.6002C28.4 14.3793 28.2209 14.2002 28 14.2002Z" fill="#F5EEFF"/>
    <path d="M20.4 18.5996H18C16.8972 18.5996 16 19.4968 16 20.5996C16 20.8205 16.1791 20.9996 16.4 20.9996L19.1999 21.3996L21.2 20.9996C21.4209 20.9996 21.5999 20.8205 21.5999 20.5996V19.7996C21.6 19.138 21.0617 18.5996 20.4 18.5996Z" fill="#606268"/>
    <path d="M28.3894 21.3086L26.7894 14.5085C26.7469 14.3278 26.5857 14.2002 26.4 14.2002H25.2C24.9791 14.2002 24.8 14.3793 24.8 14.6002V24.2002H21.6V21.4002C21.6 21.1793 21.4209 21.0002 21.2 21.0002H14.8C12.8149 21.0002 11.2 22.6151 11.2 24.6002V26.2002C11.2 26.4211 11.3791 26.6002 11.6 26.6002H28C28.2209 26.6002 28.4 26.4211 28.4 26.2002V21.4002C28.4 21.3694 28.3964 21.3386 28.3894 21.3086Z" fill="#9747FF"/>
    <path d="M25.6 14.6002C25.6 14.3793 25.7791 14.2002 26 14.2002H25.2C24.9791 14.2002 24.8 14.3793 24.8 14.6002V24.2002H25.6V14.6002Z" fill="#FCFCFC"/>
    <path d="M12 26.2V24.6C12 22.6149 13.6149 21 15.6 21H14.8C12.8149 21 11.2 22.6149 11.2 24.6V26.2C11.2 26.4209 11.3791 26.6 11.6 26.6H12.4C12.1791 26.6 12 26.4209 12 26.2Z" fill="#E1C9FF"/>
    <path d="M16.8 20.5996C16.8 19.4968 17.6972 18.5996 18.8 18.5996H18C16.8972 18.5996 16 19.4968 16 20.5996C16 20.8205 16.1791 20.9996 16.4 20.9996H17.2C16.9791 20.9996 16.8 20.8205 16.8 20.5996Z" fill="#4C4E55"/>
    <path d="M18.4 23.0002H16.4C16.1791 23.0002 16 22.8211 16 22.6002C16 22.3793 16.1791 22.2002 16.4 22.2002H18.4C18.621 22.2002 18.8 22.3793 18.8 22.6002C18.8 22.8211 18.6209 23.0002 18.4 23.0002Z" fill="#D1C0FF"/>
    <path d="M18.4 24.2004H16.4C16.1791 24.2004 16 24.0212 16 23.8004C16 23.5795 16.1791 23.4004 16.4 23.4004H18.4C18.621 23.4004 18.8 23.5795 18.8 23.8004C18.8 24.0212 18.6209 24.2004 18.4 24.2004Z" fill="#D1C0FF"/>
    <path d="M18.4 25.4006H16.4C16.1791 25.4006 16 25.2214 16 25.0006C16 24.7797 16.1791 24.6006 16.4 24.6006H18.4C18.621 24.6006 18.8 24.7797 18.8 25.0006C18.8 25.2214 18.6209 25.4006 18.4 25.4006Z" fill="#D1C0FF"/>
    <path d="M26.8 21C23.9327 21 21.6 23.3327 21.6 26.2C21.6 26.4209 21.7791 26.6 22 26.6H31.6C31.8209 26.6 32 26.4209 32 26.2C32 23.3327 29.6673 21 26.8 21Z" fill="#9747FF"/>
    <path d="M22.4 26.2C22.4 23.4673 24.5189 21.2201 27.2 21.0152C27.068 21.0052 26.9346 21 26.8 21C23.9327 21 21.6 23.3327 21.6 26.2C21.6 26.4209 21.7791 26.6 22 26.6H22.8C22.5791 26.6 22.4 26.4209 22.4 26.2Z" fill="#E1C9FF"/>
    <path d="M28.8001 23.7992C29.2419 23.7992 29.6001 23.4411 29.6001 22.9992C29.6001 22.5574 29.2419 22.1992 28.8001 22.1992C28.3582 22.1992 28.0001 22.5574 28.0001 22.9992C28.0001 23.4411 28.3582 23.7992 28.8001 23.7992Z" fill="#F5EEFF"/>
    <path d="M30.0001 24.5988C30.221 24.5988 30.4001 24.4197 30.4001 24.1988C30.4001 23.9779 30.221 23.7988 30.0001 23.7988C29.7792 23.7988 29.6001 23.9779 29.6001 24.1988C29.6001 24.4197 29.7792 24.5988 30.0001 24.5988Z" fill="#F5EEFF"/>
    </svg>
    