<svg width="40" height="40" viewBox="0 0 40 40" fill="none" xmlns="http://www.w3.org/2000/svg">
    <rect width="40" height="40" rx="20" fill="#D8F6F9"/>
    <mask id="mask0_2785_7111" style="mask-type:alpha" maskUnits="userSpaceOnUse" x="8" y="8" width="24" height="24">
    <rect x="8" y="8" width="24" height="24" fill="#D9D9D9"/>
    </mask>
    <g mask="url(#mask0_2785_7111)">
    <path d="M16.6 30.5L14.7 27.3L11.1 26.5L11.45 22.8L9 20L11.45 17.2L11.1 13.5L14.7 12.7L16.6 9.5L20 10.95L23.4 9.5L25.3 12.7L28.9 13.5L28.55 17.2L31 20L28.55 22.8L28.9 26.5L25.3 27.3L23.4 30.5L20 29.05L16.6 30.5ZM17.45 27.95L20 26.85L22.6 27.95L24 25.55L26.75 24.9L26.5 22.1L28.35 20L26.5 17.85L26.75 15.05L24 14.45L22.55 12.05L20 13.15L17.4 12.05L16 14.45L13.25 15.05L13.5 17.85L11.65 20L13.5 22.1L13.25 24.95L16 25.55L17.45 27.95ZM18.95 23.55L24.6 17.9L23.2 16.45L18.95 20.7L16.8 18.6L15.4 20L18.95 23.55Z" fill="#268963"/>
    </g>
    </svg>
    