<svg width="18" height="16" viewBox="0 0 18 16" fill="none" xmlns="http://www.w3.org/2000/svg">
    <path fill-rule="evenodd" clip-rule="evenodd" d="M17.3094 0H7.49069C6.05875 0.00380745 4.66445 0.458846 3.50593 1.30045C2.34742 2.14204 1.48364 3.32738 1.03735 4.688C3.73069 4.576 9.30402 4.688 10.6374 4.688C12.7707 4.688 14.04 6.17067 14.04 8.22933C14.04 8.93867 13.096 12.144 11.7467 13.0293C10.8742 13.532 9.87076 13.7605 8.86669 13.6853C7.68802 13.6853 6.50402 13.6853 5.32535 13.6853C5.01764 14.4337 4.77844 15.2084 4.61069 16H10.5094C12.3157 15.9944 14.0461 15.2725 15.3209 13.9927C16.5957 12.7129 17.3108 10.9797 17.3094 9.17333V0ZM0.690686 8.32533H2.09335H9.51735C10.1414 8.352 10.1414 8.42667 9.99735 8.93867C9.82669 9.552 9.77335 9.42933 9.49602 9.85067C9.20269 9.85067 2.77069 9.728 2.56269 9.97333C2.08394 11.2489 1.70415 12.5594 1.42669 13.8933C1.42669 14.848 2.21602 15.408 3.19202 15.408C3.19202 14.4267 3.78402 13.3227 4.07202 12.1227C5.87469 11.9893 10.1414 12.6133 11.3094 11.2747C11.9192 10.2085 12.3328 9.04156 12.5307 7.82933C12.4757 7.46941 12.322 7.13179 12.0866 6.85403C11.8512 6.57626 11.5434 6.36925 11.1974 6.256C10.5734 6.09067 3.78402 6.144 0.722686 6.18133C0.700943 6.38862 0.690261 6.59691 0.690686 6.80533V8.32533Z" fill="white"/>
    </svg>
    