<svg width="73" height="72" viewBox="0 0 73 72" fill="none" xmlns="http://www.w3.org/2000/svg">
    <path d="M30.746 51.631L56.331 26.046L53.5 23.215L30.746 45.969L19.346 34.569L16.515 37.4L30.746 51.631ZM36.513 72C31.535 72 26.8547 71.0553 22.472 69.166C18.09 67.2767 14.278 64.7127 11.036 61.474C7.794 58.2353 5.22767 54.4267 3.337 50.048C1.44567 45.67 0.5 40.9917 0.5 36.013C0.5 31.035 1.44467 26.3547 3.334 21.972C5.22333 17.59 7.78733 13.778 11.026 10.536C14.2647 7.294 18.0733 4.72767 22.452 2.837C26.83 0.945666 31.5083 0 36.487 0C41.465 0 46.1453 0.944669 50.528 2.834C54.91 4.72334 58.722 7.28733 61.964 10.526C65.206 13.7647 67.7723 17.5733 69.663 21.952C71.5543 26.33 72.5 31.0083 72.5 35.987C72.5 40.965 71.5553 45.6453 69.666 50.028C67.7767 54.41 65.2127 58.222 61.974 61.464C58.7353 64.706 54.9267 67.2723 50.548 69.163C46.17 71.0543 41.4917 72 36.513 72ZM36.5 68C45.4333 68 53 64.9 59.2 58.7C65.4 52.5 68.5 44.9333 68.5 36C68.5 27.0667 65.4 19.5 59.2 13.3C53 7.1 45.4333 4 36.5 4C27.5667 4 20 7.1 13.8 13.3C7.6 19.5 4.5 27.0667 4.5 36C4.5 44.9333 7.6 52.5 13.8 58.7C20 64.9 27.5667 68 36.5 68Z" fill="#049E5E"/>
    </svg>
    