<svg width="25" height="25" viewBox="0 0 25 25" fill="none" xmlns="http://www.w3.org/2000/svg">
    <path fill-rule="evenodd" clip-rule="evenodd" d="M10.5068 3.94714C10.8121 4.22703 10.8328 4.70146 10.5529 5.0068L6.20494 9.75H20.5C20.9142 9.75 21.25 10.0858 21.25 10.5C21.25 10.9142 20.9142 11.25 20.5 11.25H4.50002C4.20259 11.25 3.93327 11.0742 3.8135 10.802C3.69374 10.5298 3.74617 10.2125 3.94715 9.99321L9.44715 3.99321C9.72704 3.68787 10.2015 3.66724 10.5068 3.94714ZM3.75002 14.5C3.75002 14.0858 4.0858 13.75 4.50002 13.75H20.5C20.7974 13.75 21.0668 13.9258 21.1865 14.198C21.3063 14.4703 21.2539 14.7875 21.0529 15.0068L15.5529 21.0068C15.273 21.3121 14.7986 21.3328 14.4932 21.0529C14.1879 20.773 14.1673 20.2985 14.4471 19.9932L18.7951 15.25H4.50002C4.0858 15.25 3.75002 14.9142 3.75002 14.5Z" fill="#272727"/>
    </svg>
    